# File created by Blade
# Date/Time:  Tue Sep 28 14:35:47 2010
#---------------------------------------------------------
:version 1.10
:name HOM
:units
  mass 1.0
  length 1.000000
  angle deg
:documentation
     Acclaim Skeleton File
:root
   axis xyz
   order TX TY TZ RX RY RZ
   position 0.000000 0.000000 0.000000
   orientation 0 0 0
:bonedata
   begin
      id 1
      name LeftUpLeg_dum
      direction 1.000000 0.000000 0.000000
      length 3.677894
      axis 0.0 0.0 0.0 xyz
   end
   begin
      id 2
      name RightUpLeg_dum
      direction -1.000000 0.000000 0.000000
      length 3.677894
      axis 0.0 0.0 0.0 xyz
   end
   begin
      id 3
      name Spine_dum
      direction 0.000000 1.000000 0.000000
      length 0.039370
      axis 0.0 0.0 0.0 xyz
   end
   begin
      id 4
      name LeftUpLeg
      direction 0.000000 -1.000000 0.000000
      length 18.389491
      axis 0.0 0.0 0.0 xyz
      dof rx ry rz
   end
   begin
      id 5
      name LeftLeg
      direction 0.000000 -1.000000 0.000000
      length 16.918313
      axis 0.0 0.0 0.0 xyz
      dof rx ry rz
   end
   begin
      id 6
      name LeftFoot
      direction 0.000000 -0.258819 0.965926
      length 6.436326
      axis 15.0 0.0 0.0 xyz
      dof rx ry rz
   end
   begin
      id 7
      name LeftToeBase
      direction 0.000000 0.000000 1.000000
      length 2.952750
      axis 0.0 0.0 0.0 xyz
      dof rx ry rz
   end
   begin
      id 8
      name RightUpLeg
      direction 0.000000 -1.000000 0.000000
      length 18.389491
      axis 0.0 0.0 0.0 xyz
      dof rx ry rz
   end
   begin
      id 9
      name RightLeg
      direction 0.000000 -1.000000 0.000000
      length 16.918313
      axis 0.0 0.0 0.0 xyz
      dof rx ry rz
   end
   begin
      id 10
      name RightFoot
      direction 0.000000 -0.258819 0.965926
      length 6.436326
      axis 15.0 0.0 0.0 xyz
      dof rx ry rz
   end
   begin
      id 11
      name RightToeBase
      direction 0.000000 0.000000 1.000000
      length 2.952750
      axis 0.0 0.0 0.0 xyz
      dof rx ry rz
   end
   begin
      id 12
      name Spine
      direction 0.000000 1.000000 0.000000
      length 9.194745
      axis 0.0 0.0 0.0 xyz
      dof rx ry rz
   end
   begin
      id 13
      name Spine1
      direction 0.000000 1.000000 0.000000
      length 0.000000
      axis 0.0 0.0 0.0 xyz
      dof rx ry rz
   end
   begin
      id 14
      name Spine1_dum1
      direction 0.000000 1.000000 0.000000
      length 9.194745
      axis 0.0 0.0 0.0 xyz
   end
   begin
      id 15
      name Spine1_dum2
      direction 0.000000 1.000000 0.000000
      length 9.194745
      axis 0.0 0.0 0.0 xyz
   end
   begin
      id 16
      name Spine1_dum3
      direction 0.000000 1.000000 0.000000
      length 9.194745
      axis 0.0 0.0 0.0 xyz
   end
   begin
      id 17
      name Neck
      direction 0.000000 1.000000 0.000000
      length 4.229598
      axis 0.0 0.0 0.0 xyz
      dof rx ry rz
   end
   begin
      id 18
      name Head
      direction 0.000000 1.000000 0.000000
      length 4.527550
      axis 0.0 0.0 0.0 xyz
      dof rx ry rz
   end
   begin
      id 19
      name LeftShoulder
      direction 1.000000 -0.000004 0.000000
      length 5.516839
      axis 0.0 0.0 -90.0 xyz
      dof rx ry rz
   end
   begin
      id 20
      name LeftArm
      direction 1.000000 -0.000004 0.000000
      length 11.033679
      axis 0.0 0.0 -90.0 xyz
      dof rx ry rz
   end
   begin
      id 21
      name LeftForeArm
      direction 1.000000 -0.000004 0.000000
      length 10.114232
      axis 0.0 0.0 -90.0 xyz
      dof rx ry rz
   end
   begin
      id 22
      name LeftHand
      direction 0.000000 0.000000 0.000000
      length 0.000000
      axis 0.0 0.0 -90.0 xyz
      dof rx ry rz
   end
   begin
      id 23
      name LeftHand_dum1
      direction 0.000000 0.000000 0.000000
      length 0.000000
      axis 0.0 0.0 -90.0 xyz
   end
   begin
      id 24
      name LeftHand_dum2
      direction 1.000000 -0.000004 0.000000
      length 3.937000
      axis 0.0 0.0 -90.0 xyz
   end
   begin
      id 25
      name LeftHandThumb
      direction 0.000000 0.000000 1.000000
      length 3.937000
      axis 0.0 0.0 -90.0 xyz
      dof rx ry rz
   end
   begin
      id 26
      name RightShoulder
      direction -1.000000 -0.000004 0.000000
      length 5.516839
      axis 0.0 0.0 90.0 xyz
      dof rx ry rz
   end
   begin
      id 27
      name RightArm
      direction -1.000000 -0.000004 0.000000
      length 11.033679
      axis 0.0 0.0 90.0 xyz
      dof rx ry rz
   end
   begin
      id 28
      name RightForeArm
      direction -1.000000 -0.000004 0.000000
      length 10.114232
      axis 0.0 0.0 90.0 xyz
      dof rx ry rz
   end
   begin
      id 29
      name RightHand
      direction 0.000000 0.000000 0.000000
      length 0.000000
      axis 0.0 0.0 90.0 xyz
      dof rx ry rz
   end
   begin
      id 30
      name RightHand_dum1
      direction 0.000000 0.000000 0.000000
      length 0.000000
      axis 0.0 0.0 90.0 xyz
   end
   begin
      id 31
      name RightHand_dum2
      direction -1.000000 -0.000004 0.000000
      length 5.393690
      axis 0.0 0.0 90.0 xyz
   end
   begin
      id 32
      name RightHandThumb
      direction 0.000000 0.000000 1.000000
      length 3.937000
      axis 0.0 0.0 90.0 xyz
      dof rx ry rz
   end
:hierarchy
   begin
      root LeftUpLeg_dum RightUpLeg_dum Spine_dum
      LeftUpLeg_dum LeftUpLeg
      RightUpLeg_dum RightUpLeg
      Spine_dum Spine
      LeftUpLeg LeftLeg
      LeftLeg LeftFoot
      LeftFoot LeftToeBase
      RightUpLeg RightLeg
      RightLeg RightFoot
      RightFoot RightToeBase
      Spine Spine1
      Spine1 Spine1_dum1 Spine1_dum2 Spine1_dum3
      Spine1_dum1 Neck
      Spine1_dum2 LeftShoulder
      Spine1_dum3 RightShoulder
      Neck Head
      LeftShoulder LeftArm
      LeftArm LeftForeArm
      LeftForeArm LeftHand
      LeftHand LeftHand_dum1 LeftHand_dum2
      LeftHand_dum1 LeftHandThumb
      RightShoulder RightArm
      RightArm RightForeArm
      RightForeArm RightHand
      RightHand RightHand_dum1 RightHand_dum2
      RightHand_dum1 RightHandThumb
   end

# File created by Blade
# Date/Time:  Tue Sep 28 14:35:42 2010
# Frame Rate: 200.000 fps
#------------------------------------------------------
:FULLY-SPECIFIED
:DEGREES
241
root  -0.750693 36.385072 -72.119117 9.894536 -5.240137 2.035214
LeftUpLeg  -30.873186 -5.225920 2.409606
LeftLeg  8.499350 -0.000000 0.000000
LeftFoot  3.589339 23.346199 1.556450
LeftToeBase  -10.043478 0.000000 -0.000000
RightUpLeg  0.586562 -21.601293 -2.956823
RightLeg  20.360313 -0.000000 0.000000
RightFoot  -11.248450 1.896850 -15.553647
RightToeBase  -17.709866 0.000000 -0.000000
Spine  -13.340948 -1.849166 -3.804120
Spine1  18.058840 0.643787 1.586735
Neck  3.214310 3.512887 -4.838303
Head  -12.730072 3.338316 1.353246
LeftShoulder  -4.743447 -11.067483 -28.682536
LeftArm  2.542945 43.074669 -33.779099
LeftForeArm  29.520555 -0.000000 0.000000
LeftHand  5.729558 -10.612810 3.314066
LeftHandThumb  0.000000 -0.000000 0.000000
RightShoulder  4.767860 9.350341 23.017530
RightArm  3.545403 -44.945267 35.878185
RightForeArm  53.329630 -0.000000 -0.000000
RightHand  11.961939 12.937158 -1.757984
RightHandThumb  0.000000 -0.000000 0.000000
242
root  -0.721601 36.366815 -71.924805 9.985901 -5.311115 2.085780
LeftUpLeg  -30.810843 -5.607698 2.478574
LeftLeg  8.423148 -0.000000 0.000000
LeftFoot  3.676297 23.588646 1.654718
LeftToeBase  -9.732300 0.000000 -0.000000
RightUpLeg  0.648133 -21.461999 -3.154628
RightLeg  20.595504 -0.000000 0.000000
RightFoot  -11.126006 1.863525 -15.523766
RightToeBase  -17.893063 0.000000 -0.000000
Spine  -13.409221 -1.863161 -3.928704
Spine1  17.983041 0.673228 1.542505
Neck  3.129632 3.470457 -4.761856
Head  -12.699800 3.396922 1.353441
LeftShoulder  -4.789177 -10.826143 -28.660829
LeftArm  2.623462 42.817460 -33.776752
LeftForeArm  29.458876 -0.000000 0.000000
LeftHand  5.577417 -8.739921 2.902812
LeftHandThumb  0.000000 -0.000000 0.000000
RightShoulder  4.766206 9.287263 23.059283
RightArm  3.472806 -44.907485 35.909488
RightForeArm  53.294382 -0.000000 -0.000000
RightHand  11.902665 12.459058 -1.775285
RightHandThumb  0.000000 -0.000000 0.000000
243
root  -0.694510 36.357066 -71.771645 10.056167 -5.368947 2.090864
LeftUpLeg  -30.809648 -5.745817 2.502256
LeftLeg  8.433631 -0.000000 0.000000
LeftFoot  4.168305 23.567592 1.851722
LeftToeBase  -10.002560 0.000000 -0.000000
RightUpLeg  0.661715 -21.305978 -3.264314
RightLeg  20.799375 -0.000000 0.000000
RightFoot  -10.871777 1.751610 -15.522461
RightToeBase  -18.502559 0.000000 -0.000000
Spine  -13.350471 -1.871853 -4.036239
Spine1  18.056594 0.699297 1.501965
Neck  2.916023 3.503581 -4.700929
Head  -13.015680 3.408888 1.393718
LeftShoulder  -4.720862 -10.952297 -28.633808
LeftArm  2.600060 42.862406 -33.799308
LeftForeArm  29.388369 -0.000000 0.000000
LeftHand  5.629246 -8.889710 3.140238
LeftHandThumb  0.000000 -0.000000 0.000000
RightShoulder  4.820100 9.339061 23.112012
RightArm  3.470441 -44.816557 35.937040
RightForeArm  53.244480 -0.000000 -0.000000
RightHand  11.954975 12.468018 -1.774273
RightHandThumb  0.000000 -0.000000 0.000000
244
root  -0.663900 36.339986 -71.576549 10.130811 -5.461092 2.128739
LeftUpLeg  -30.743942 -5.947827 2.485224
LeftLeg  8.504071 -0.000000 0.000000
LeftFoot  4.423318 23.769322 2.073291
LeftToeBase  -9.634985 0.000000 -0.000000
RightUpLeg  0.673644 -20.957652 -3.410248
RightLeg  21.120723 -0.000000 0.000000
RightFoot  -10.671954 1.491190 -15.498522
RightToeBase  -18.880427 0.000000 -0.000000
Spine  -13.410495 -1.876739 -4.160462
Spine1  17.988671 0.737366 1.463473
Neck  2.780166 3.498277 -4.609682
Head  -12.834811 3.462667 1.404447
LeftShoulder  -4.769892 -10.739226 -28.600977
LeftArm  2.686889 42.530609 -33.816532
LeftForeArm  29.284367 -0.000000 0.000000
LeftHand  5.526966 -8.878665 2.895595
LeftHandThumb  0.000000 -0.000000 0.000000
RightShoulder  4.836150 9.281126 23.156419
RightArm  3.395365 -44.799578 35.976957
RightForeArm  53.164062 -0.000000 -0.000000
RightHand  11.859183 12.211737 -1.643470
RightHandThumb  0.000000 -0.000000 0.000000
245
root  -0.636455 36.330249 -71.415066 10.199096 -5.527068 2.124949
LeftUpLeg  -30.725336 -5.979209 2.444660
LeftLeg  8.612581 -0.000000 0.000000
LeftFoot  5.148033 23.721543 2.460554
LeftToeBase  -9.667270 0.000000 -0.000000
RightUpLeg  0.676728 -20.740811 -3.514626
RightLeg  21.354433 -0.000000 0.000000
RightFoot  -10.392681 1.397886 -15.469212
RightToeBase  -19.434408 0.000000 -0.000000
Spine  -13.358179 -1.887167 -4.270537
Spine1  18.048679 0.762982 1.423287
Neck  2.557903 3.504289 -4.527965
Head  -13.160870 3.458007 1.444860
LeftShoulder  -4.697741 -10.858050 -28.562987
LeftArm  2.675836 42.550377 -33.838365
LeftForeArm  29.139268 -0.000000 0.000000
LeftHand  5.603279 -9.071137 3.048445
LeftHandThumb  0.000000 -0.000000 0.000000
RightShoulder  4.902749 9.368635 23.207434
RightArm  3.360323 -44.798313 36.018094
RightForeArm  53.084518 -0.000000 0.000000
RightHand  11.817441 12.026609 -1.742509
RightHandThumb  0.000000 -0.000000 0.000000
246
root  -0.609906 36.316857 -71.226900 10.268379 -5.618449 2.122582
LeftUpLeg  -30.681870 -5.921019 2.341576
LeftLeg  8.819582 -0.000000 0.000000
LeftFoot  5.753920 23.691923 2.784071
LeftToeBase  -9.692041 0.000000 -0.000000
RightUpLeg  0.723793 -20.634467 -3.679183
RightLeg  21.625035 -0.000000 0.000000
RightFoot  -10.186864 1.455667 -15.479040
RightToeBase  -19.891472 0.000000 -0.000000
Spine  -13.381831 -1.887352 -4.383801
Spine1  18.015612 0.801468 1.394771
Neck  2.402744 3.514040 -4.428208
Head  -13.104604 3.502445 1.452468
LeftShoulder  -4.754806 -10.614957 -28.519554
LeftArm  2.790913 42.155680 -33.829650
LeftForeArm  29.152819 -0.000000 0.000000
LeftHand  5.446258 -8.840799 3.085833
LeftHandThumb  0.000000 -0.000000 0.000000
RightShoulder  4.927626 9.288319 23.257578
RightArm  3.335043 -44.721086 36.044365
RightForeArm  52.969328 -0.000000 0.000000
RightHand  11.748635 12.020479 -1.579267
RightHandThumb  0.000000 -0.000000 0.000000
247
root  -0.578000 36.304208 -71.038946 10.330337 -5.704835 2.123305
LeftUpLeg  -30.627884 -5.799198 2.189966
LeftLeg  9.027418 -0.000000 0.000000
LeftFoot  6.327691 23.645333 3.023337
LeftToeBase  -9.774142 0.000000 -0.000000
RightUpLeg  0.731079 -20.378482 -3.798652
RightLeg  21.941812 -0.000000 0.000000
RightFoot  -9.882468 1.286857 -15.463214
RightToeBase  -20.448570 0.000000 -0.000000
Spine  -13.394531 -1.889444 -4.492772
Spine1  17.999363 0.836501 1.367980
Neck  2.264010 3.511853 -4.341766
Head  -13.206973 3.543012 1.474468
LeftShoulder  -4.767929 -10.515317 -28.473112
LeftArm  2.821615 41.993415 -33.867672
LeftForeArm  29.087202 -0.000000 0.000000
LeftHand  5.422760 -9.034337 2.999741
LeftHandThumb  0.000000 -0.000000 0.000000
RightShoulder  4.960525 9.235747 23.300659
RightArm  3.301883 -44.662585 36.067772
RightForeArm  52.834170 -0.000000 0.000000
RightHand  11.727979 11.891403 -1.508749
RightHandThumb  0.000000 -0.000000 0.000000
248
root  -0.547847 36.291251 -70.842404 10.409048 -5.830525 2.135581
LeftUpLeg  -30.552152 -5.450882 1.924145
LeftLeg  9.229157 -0.000000 0.000000
LeftFoot  6.756656 23.458637 3.164695
LeftToeBase  -9.359465 0.000000 -0.000000
RightUpLeg  0.794232 -20.347870 -4.011291
RightLeg  22.174324 -0.000000 0.000000
RightFoot  -9.700245 1.445659 -15.499808
RightToeBase  -20.674883 0.000000 -0.000000
Spine  -13.465744 -1.888317 -4.622040
Spine1  17.960175 0.882525 1.349792
Neck  2.155155 3.442755 -4.226199
Head  -13.167405 3.588130 1.450677
LeftShoulder  -4.766643 -10.488273 -28.400661
LeftArm  2.791312 41.971853 -33.959579
LeftForeArm  28.927167 -0.000000 0.000000
LeftHand  5.373076 -9.382799 2.886012
LeftHandThumb  0.000000 -0.000000 0.000000
RightShoulder  5.011025 9.206006 23.355266
RightArm  3.199800 -44.703178 36.130600
RightForeArm  52.673234 -0.000000 0.000000
RightHand  11.623400 11.844349 -1.535169
RightHandThumb  0.000000 -0.000000 0.000000
249
root  -0.517501 36.283050 -70.666089 10.466645 -5.911573 2.127642
LeftUpLeg  -30.520236 -5.190399 1.716605
LeftLeg  9.428391 -0.000000 0.000000
LeftFoot  7.492882 23.387722 3.527861
LeftToeBase  -9.187977 0.000000 -0.000000
RightUpLeg  0.797888 -20.135322 -4.133804
RightLeg  22.442606 -0.000000 0.000000
RightFoot  -9.343651 1.401115 -15.543109
RightToeBase  -21.361874 0.000000 -0.000000
Spine  -13.458470 -1.882971 -4.734853
Spine1  17.991312 0.925602 1.326665
Neck  1.989279 3.444339 -4.132869
Head  -13.289783 3.620121 1.466470
LeftShoulder  -4.766990 -10.455409 -28.348592
LeftArm  2.815164 41.804957 -33.997506
LeftForeArm  28.929016 -0.000000 0.000000
LeftHand  5.222258 -9.170625 2.960060
LeftHandThumb  0.000000 -0.000000 0.000000
RightShoulder  5.067659 9.203322 23.399972
RightArm  3.162016 -44.675774 36.157500
RightForeArm  52.527325 -0.000000 0.000000
RightHand  11.491328 11.826891 -1.430605
RightHandThumb  0.000000 -0.000000 0.000000
